HIERARCHY
ROOT Hips
{
  OFFSET 0 0.240689 0
  CHANNELS 6 Xposition Yposition Zposition Zrotation Xrotation Yrotation
  JOINT Bip01_Spine0
  {
    OFFSET 0 -24.7459 49.7988
    CHANNELS 6 Xposition Yposition Zposition Zrotation Xrotation Yrotation
    JOINT Bip01_Pelvis
    {
      OFFSET 0 0 0
      CHANNELS 6 Xposition Yposition Zposition Zrotation Xrotation Yrotation
      JOINT Bip01_Spine0_Tail
      {
        OFFSET -6.47486 -3.86022 0
        CHANNELS 6 Xposition Yposition Zposition Zrotation Xrotation Yrotation
        JOINT Bip01_Spine0_Tail1
        {
          OFFSET 10.3837 -0.00825882 0
          CHANNELS 6 Xposition Yposition Zposition Zrotation Xrotation Yrotation
          JOINT Bip01_Spine0_Tail2
          {
            OFFSET 10.3837 -0.00826263 0
            CHANNELS 6 Xposition Yposition Zposition Zrotation Xrotation Yrotation
            JOINT Bip01_Spine0_Tail3
            {
              OFFSET 10.3837 -0.00825882 0
              CHANNELS 6 Xposition Yposition Zposition Zrotation Xrotation Yrotation
              JOINT Bip01_Spine0_Tail4
              {
                OFFSET 10.3837 -0.00826263 0
                CHANNELS 6 Xposition Yposition Zposition Zrotation Xrotation Yrotation
                End Site
                {
                  OFFSET 0 0 0
                }
              }
            }
          }
        }
      }
      JOINT Bip01_R_Thigh
      {
        OFFSET 0 -1.52588e-005 -8.75617
        CHANNELS 6 Xposition Yposition Zposition Zrotation Xrotation Yrotation
        JOINT Bip01_R_Calf
        {
          OFFSET 19.7638 0 0
          CHANNELS 6 Xposition Yposition Zposition Zrotation Xrotation Yrotation
          JOINT Bip01_R_Foot
          {
            OFFSET 18.6534 0 0
            CHANNELS 6 Xposition Yposition Zposition Zrotation Xrotation Yrotation
            JOINT Bip01_R_Toe0
            {
              OFFSET 5.09145 13.9567 0
              CHANNELS 6 Xposition Yposition Zposition Zrotation Xrotation Yrotation
              JOINT Bip01_R_Toe01
              {
                OFFSET 4.28803 0 0
                CHANNELS 6 Xposition Yposition Zposition Zrotation Xrotation Yrotation
                JOINT Bip01_R_Toe02
                {
                  OFFSET 3.85801 0 0
                  CHANNELS 6 Xposition Yposition Zposition Zrotation Xrotation Yrotation
                  End Site
                  {
                    OFFSET 0 0 0
                  }
                }
              }
            }
          }
        }
      }
      JOINT Bip01_L_Thigh
      {
        OFFSET 0 1.52588e-005 8.75617
        CHANNELS 6 Xposition Yposition Zposition Zrotation Xrotation Yrotation
        JOINT Bip01_L_Calf
        {
          OFFSET 19.7638 0 0
          CHANNELS 6 Xposition Yposition Zposition Zrotation Xrotation Yrotation
          JOINT Bip01_L_Foot
          {
            OFFSET 18.6534 0 0
            CHANNELS 6 Xposition Yposition Zposition Zrotation Xrotation Yrotation
            JOINT Bip01_L_Toe0
            {
              OFFSET 5.09144 13.9567 0
              CHANNELS 6 Xposition Yposition Zposition Zrotation Xrotation Yrotation
              JOINT Bip01_L_Toe01
              {
                OFFSET 4.28802 0 0
                CHANNELS 6 Xposition Yposition Zposition Zrotation Xrotation Yrotation
                JOINT Bip01_L_Toe02
                {
                  OFFSET 3.85801 0 0
                  CHANNELS 6 Xposition Yposition Zposition Zrotation Xrotation Yrotation
                  End Site
                  {
                    OFFSET 0 0 0
                  }
                }
              }
            }
          }
        }
      }
      JOINT Bip01_Spine
      {
        OFFSET 9.14835 -0.00640869 -1.1e-005
        CHANNELS 6 Xposition Yposition Zposition Zrotation Xrotation Yrotation
        JOINT Bip01_Spine1
        {
          OFFSET 8.04366 -0.00638199 0
          CHANNELS 6 Xposition Yposition Zposition Zrotation Xrotation Yrotation
          JOINT Bip01_Spine2
          {
            OFFSET 8.04367 -0.00639343 0
            CHANNELS 6 Xposition Yposition Zposition Zrotation Xrotation Yrotation
            JOINT Bip01_Spine3
            {
              OFFSET 8.04304 -0.00831222 0
              CHANNELS 6 Xposition Yposition Zposition Zrotation Xrotation Yrotation
              JOINT Bip01_Neck
              {
                OFFSET 10.6685 1.06813 0
                CHANNELS 6 Xposition Yposition Zposition Zrotation Xrotation Yrotation
                JOINT Bip01_R_Clavicle
                {
                  OFFSET -3.21661 -4.89635 -9.04802
                  CHANNELS 6 Xposition Yposition Zposition Zrotation Xrotation Yrotation
                  JOINT Bip01_R_UpperArm
                  {
                    OFFSET 19.0492 0 0
                    CHANNELS 6 Xposition Yposition Zposition Zrotation Xrotation Yrotation
                    JOINT Bip01_R_Forearm
                    {
                      OFFSET 10.3706 0 0
                      CHANNELS 6 Xposition Yposition Zposition Zrotation Xrotation Yrotation
                      JOINT Bip01_R_Hand
                      {
                        OFFSET 22.8632 0 0
                        CHANNELS 6 Xposition Yposition Zposition Zrotation Xrotation Yrotation
                        JOINT Bip01_R_Finger0
                        {
                          OFFSET 6.48259 0.103651 0.504496
                          CHANNELS 6 Xposition Yposition Zposition Zrotation Xrotation Yrotation
                          JOINT Bip01_R_Finger01
                          {
                            OFFSET 3.66847 0 0
                            CHANNELS 6 Xposition Yposition Zposition Zrotation Xrotation Yrotation
                            End Site
                            {
                              OFFSET 0 0 0
                            }
                          }
                        }
                      }
                    }
                  }
                }
                JOINT Bip01_L_Clavicle
                {
                  OFFSET -3.21661 -4.89641 9.04797
                  CHANNELS 6 Xposition Yposition Zposition Zrotation Xrotation Yrotation
                  JOINT Bip01_L_UpperArm
                  {
                    OFFSET 19.0492 0 0
                    CHANNELS 6 Xposition Yposition Zposition Zrotation Xrotation Yrotation
                    JOINT Bip01_L_Forearm
                    {
                      OFFSET 10.3706 0 0
                      CHANNELS 6 Xposition Yposition Zposition Zrotation Xrotation Yrotation
                      JOINT Bip01_L_Hand
                      {
                        OFFSET 22.8631 0 0
                        CHANNELS 6 Xposition Yposition Zposition Zrotation Xrotation Yrotation
                        JOINT Bip01_L_Finger0
                        {
                          OFFSET 6.48257 0.103655 -0.504492
                          CHANNELS 6 Xposition Yposition Zposition Zrotation Xrotation Yrotation
                          JOINT Bip01_L_Finger01
                          {
                            OFFSET 3.66844 0 0
                            CHANNELS 6 Xposition Yposition Zposition Zrotation Xrotation Yrotation
                            End Site
                            {
                              OFFSET 0 0 0
                            }
                          }
                        }
                      }
                    }
                  }
                }
                JOINT Bip01_Neck1
                {
                  OFFSET 7.52459 -0.00656509 0
                  CHANNELS 6 Xposition Yposition Zposition Zrotation Xrotation Yrotation
                  JOINT Bip01_Neck2
                  {
                    OFFSET 8.4783 -0.00588226 0
                    CHANNELS 6 Xposition Yposition Zposition Zrotation Xrotation Yrotation
                    JOINT Bip01_Head
                    {
                      OFFSET 8.41606 0 0
                      CHANNELS 6 Xposition Yposition Zposition Zrotation Xrotation Yrotation
                      JOINT EyesBlue
                      {
                        OFFSET 0 0 0
                        CHANNELS 6 Xposition Yposition Zposition Zrotation Xrotation Yrotation
                        JOINT EyesBlue_2
                        {
                          OFFSET 0 -0.500007 0
                          CHANNELS 6 Xposition Yposition Zposition Zrotation Xrotation Yrotation
                          End Site
                          {
                            OFFSET 0 0 0
                          }
                        }
                      }
                      JOINT Bip01_Head2_Eyeleds
                      {
                        OFFSET 6.52751 7.61746 2.2e-005
                        CHANNELS 6 Xposition Yposition Zposition Zrotation Xrotation Yrotation
                        End Site
                        {
                          OFFSET 0 0 0
                        }
                      }
                      JOINT Bip01_Head_Muzzle
                      {
                        OFFSET 2.88628 13.9448 3.88994
                        CHANNELS 6 Xposition Yposition Zposition Zrotation Xrotation Yrotation
                        End Site
                        {
                          OFFSET 0 0 0
                        }
                      }
                      JOINT Bip01_Head1_Jaw
                      {
                        OFFSET 0.271065 1.32405 0
                        CHANNELS 6 Xposition Yposition Zposition Zrotation Xrotation Yrotation
                        JOINT _Bip01_Head11_TungeControler
                        {
                          OFFSET 4.61616 5.82872 0
                          CHANNELS 6 Xposition Yposition Zposition Zrotation Xrotation Yrotation
                          JOINT _Bip01_Ponytail3_tunge
                          {
                            OFFSET 5.17785 2.98805 0
                            CHANNELS 6 Xposition Yposition Zposition Zrotation Xrotation Yrotation
                            JOINT Bip01_Ponytail31
                            {
                              OFFSET 5.57569 0 0
                              CHANNELS 6 Xposition Yposition Zposition Zrotation Xrotation Yrotation
                              JOINT Bip01_Ponytail32
                              {
                                OFFSET 2.93165 0 0
                                CHANNELS 6 Xposition Yposition Zposition Zrotation Xrotation Yrotation
                                JOINT Bip01_Ponytail3Nub
                                {
                                  OFFSET 3.30155 0 0
                                  CHANNELS 6 Xposition Yposition Zposition Zrotation Xrotation Yrotation
                                  End Site
                                  {
                                    OFFSET 0 0 0
                                  }
                                }
                              }
                            }
                          }
                        }
                        JOINT Bip01_Head_JawNub
                        {
                          OFFSET 15.5776 -0.000389099 0
                          CHANNELS 6 Xposition Yposition Zposition Zrotation Xrotation Yrotation
                          End Site
                          {
                            OFFSET 0 0 0
                          }
                        }
                      }
                      JOINT Bip01_Ponytail2
                      {
                        OFFSET 9.40334 1.03973 -6.51764
                        CHANNELS 6 Xposition Yposition Zposition Zrotation Xrotation Yrotation
                        JOINT Bip01_Ponytail21
                        {
                          OFFSET 2.77018 -0.00640106 1.33514e-005
                          CHANNELS 6 Xposition Yposition Zposition Zrotation Xrotation Yrotation
                          End Site
                          {
                            OFFSET 0 0 0
                          }
                        }
                      }
                      JOINT Bip01_Ponytail1
                      {
                        OFFSET 9.40368 1.03969 6.51768
                        CHANNELS 6 Xposition Yposition Zposition Zrotation Xrotation Yrotation
                        JOINT Bip01_Ponytail11
                        {
                          OFFSET 2.77018 -0.00640487 0
                          CHANNELS 6 Xposition Yposition Zposition Zrotation Xrotation Yrotation
                          End Site
                          {
                            OFFSET 0 0 0
                          }
                        }
                      }
                    }
                  }
                }
              }
            }
          }
        }
      }
    }
  }
}
MOTION
Frames:	4
Frame Time:	0.0333333
-4.59999e-006 0 -357.579 -0 -90 -0 0.00081 -24.7447 54.2484 90.0001 -0.000676576 87.5411 0 0 0 -90.0005 0.000266061 -101.698 -6.34604 -3.85846 1.31497 -176.437 -8.10748 -17.8927 10.383 -0.008129 -4.3e-005 -1.0566 0.787067 8.46786 10.3818 -0.00798 0.000262997 -9.45782 -0.820253 7.94558 10.3843 -0.00811 0.000770998 0.641584 -5.41983 9.81671 10.3827 -0.007953 0.001876 -3.23603 -12.4408 2.90285 1.1e-005 -1.1e-005 -8.75617 -80.4292 -9.61349 -172.997 19.7638 -1e-006 0 -65.2893 0.000444714 0.00204962 18.6534 -3e-006 -1e-006 -28.0133 2.89602 6.56118 5.09143 13.9567 3.55711e-007 87.8216 3.91991 -3.36015 4.288 1.13687e-013 0 48.2652 0.00157942 0.000652977 3.85799 0 7.10543e-015 -48.3496 0.000490327 0.00141238 -1.5e-005 1.5e-005 8.75617 -77.2454 -11.943 177.423 19.7638 -1e-006 3.10862e-015 -82.1927 -0.000199998 -0.0030229 18.6534 -2.84217e-014 3.10862e-015 -36.0384 -0.725249 -6.42542 5.09143 13.9567 -1.19253e-007 81.6088 -3.37563 3.69066 4.288 -3e-006 -4.26326e-014 -18.5 1.60091e-007 2.29465e-007 3.85799 0 1.77636e-015 -2.5 -1.72159e-005 -7.31808e-007 8.95708 -0.006252 -1.85435 -10.5236 -3.82583 22.2439 8.04388 -0.006309 8.4e-005 0.744416 -0.181958 -5.59231 8.04385 -0.006301 8.8e-005 1.29911 0.183288 -2.09421 8.04399 -0.008235 0.000119 3.8732 -0.783792 -3.03523 10.6708 1.06817 1.90572e-006 9.58996 0.00166512 -0.000161573 -4.40171 -3.86759 -9.04801 177.86 -85.4247 124.594 19.0492 1e-006 5.68434e-014 86.5868 13.1704 -106.14 10.3706 -5.2e-005 4e-006 -86.8554 -6.57454e-006 -3.07312e-006 22.8631 -5.68434e-014 0 -4.42081 6.06001 2.8809 6.48256 0.103657 0.504496 -36.6071 -10.4831 -11.1115 3.66844 1.42109e-014 -3.55271e-015 40.108 -4.44436e-005 5.54724e-005 -4.40171 -3.86765 9.04798 177.873 85.6403 -131.726 19.0492 -9.4147e-014 7e-006 76.7663 -45.3593 77.0372 10.3706 0 0 -67.5333 0.000146708 0.000773768 22.8631 -7.00001e-006 -1e-006 44.934 -10.0834 8.66131 6.48256 0.103657 -0.504496 -14.5877 13.4305 6.94803 3.66843 1.7053e-013 -3e-006 24.9494 0.00115719 0.000745223 7.5253 -0.006637 2.79957e-005 -7.9501 0.00126931 0.0014162 8.47874 -0.005428 6.00057e-006 31.767 8.4852e-005 5.60892e-005 8.41605 0 5.77316e-015 -88.4966 1.01119 1.61426 -7e-006 3e-006 -3e-006 -23.1098 1.37701e-015 90 2.0168e-007 -0.499996 4.51572e-006 125.704 90 -35.7035 0 0 0 -113.549 1.52588e-005 -180 5.36567 13.4653 3.88993 -23.4392 1.39554e-015 90 0 0 0 -73.9314 -7.01671e-015 -180 0 0 0 -138.736 9.04156e-005 -1.57012e-005 0 0 0 156.768 -2.29718 -5.29352 0 0 0 -13.7181 -0.763522 5.57221 0 0 0 -25.1519 -11.776 9.81027 0 0 0 -26.1943 -8.00186e-010 7.96456e-006 15.5776 -0.000396 -7.00001e-006 -3.18055e-015 -4.96962e-017 2.48481e-017 9.4036 1.03978 -6.51606 -5.61381 -19.7806 19.7703 2.7701 -0.006017 0.002117 2.2633 -19.3671 -0.513034 9.40406 1.03966 6.51624 -5.61308 19.7829 -19.767 2.77011 -0.006002 -0.002107 2.26325 19.3686 0.514078 
-4.8e-006 0 -373.126 -0 -90 -0 0.00081 -24.7447 54.7056 89.9998 0.000995093 92.3333 0 0 0 -90.0008 0.000611599 -102.05 -6.33992 -3.85846 1.35472 -161.543 -13.8314 -19.3067 10.383 -0.008129 -4.3e-005 0.543951 1.06644 5.01551 10.3818 -0.00798 0.000263 -5.96798 -0.357028 4.56309 10.3843 -0.00811 0.000771 -2.42174 -5.60052 6.10162 10.3827 -0.007953 0.001876 -1.08194 -12.2462 -0.0584706 1.1e-005 -1.1e-005 -8.75617 -78.7119 -9.99184 -172.325 19.7638 -1e-006 8.88178e-016 -69.5856 0.000360283 0.00205019 18.6534 -3e-006 -1e-006 -33.8674 2.0451 6.98788 5.09143 13.9567 2.21153e-007 83.5211 4.29795 -2.50373 4.288 -2.84217e-014 7.10543e-015 36.0833 0.00140571 0.000971723 3.85799 5.68434e-014 0 -46.9836 0.000524242 0.00140046 -1.5e-005 1.5e-005 8.75617 -77.4706 -12.3163 177.283 19.7638 -1e-006 -1.77636e-015 -90.5282 1.43047e-005 -0.00302258 18.6534 -1.42109e-014 4.44089e-016 -30.631 -0.548379 -6.57156 5.09143 13.9567 -1.19516e-007 81.6088 -3.37563 3.69066 4.288 -3e-006 -5.32907e-014 -18.5 2.33714e-007 3.08562e-007 3.85799 -3.55271e-014 3.55271e-015 -2.5 -1.70602e-005 -7.24708e-007 8.94571 -0.006252 -1.90938 -8.36405 -3.08854 22.6714 8.04388 -0.006309 8.4e-005 -2.13668 0.101974 -5.64015 8.04385 -0.006301 8.8e-005 1.57822 0.171836 -2.14042 8.04399 -0.008235 0.000119 5.68476 -0.884464 -3.05933 10.6708 1.06817 1.44496e-006 9.58996 0.00167235 -0.000157455 -4.40171 -3.8676 -9.04801 177.864 -85.4307 117.918 19.0492 1e-006 0 86.7571 22.2241 -105.489 10.3706 -5.2e-005 4e-006 -82.0854 -6.81279e-006 -2.32901e-006 22.8631 -1.13687e-013 0 2.82991 6.40983 4.67694 6.48256 0.103657 0.504496 -55.691 -6.22375 -13.8528 3.66844 -1.77636e-014 1.77636e-014 40.108 -0.000107089 0.000110214 -4.40171 -3.86764 9.04798 177.825 85.7621 -130.068 19.0492 -6.92779e-014 7e-006 78.1111 -54.3705 80.4616 10.3706 0 7.10542e-015 -57.6703 0.000225928 0.000770678 22.8631 -7.00001e-006 -1e-006 35.8098 -9.02529 6.31487 6.48256 0.103657 -0.504496 -22.2644 12.0944 8.9472 3.66843 3.41061e-013 -3e-006 24.5903 0.00115234 0.000752398 7.5253 -0.006637 2.79994e-005 -7.77671 0.00112922 0.0014081 8.47874 -0.005428 5.98986e-006 27.5941 0.000181014 9.88485e-006 8.41605 0 -9.76996e-015 -87.6331 0.721778 1.59564 -7e-006 3e-006 -3e-006 -23.1098 1.37701e-015 90 2.02969e-007 -0.499996 4.51891e-006 144.254 90 -54.2538 0 0 0 -113.549 7.01671e-015 -180 5.36566 13.4653 3.88993 -23.4392 1.39554e-015 90 0 0 0 -75.2014 -7.01671e-015 -180 0 0 0 -138.736 5.9158e-005 -1.58959e-005 0 0 0 156.768 -2.29721 -5.29353 0 0 0 -13.7181 -0.763522 5.57221 0 0 0 -25.1519 -11.776 9.81027 0 0 0 -26.1943 -2.45168e-007 7.77894e-006 15.5776 -0.000396 -7.00001e-006 9.54166e-015 0 7.45443e-017 9.4036 1.03978 -6.51606 -5.31075 -19.3931 19.1707 2.7701 -0.006017 0.002117 2.25878 -19.8212 -0.514295 9.40406 1.03966 6.51624 -5.31093 19.3951 -19.1677 2.77011 -0.006002 -0.002107 2.2587 19.8233 0.515144 
-4.99999e-006 0 -388.673 -0 -90 -0 0.00081 -24.7447 54.5107 89.9996 0.000348112 97.3872 0 0 0 -90.0005 0.000570718 -102.486 -6.32978 -3.85846 1.40307 -159.177 -14.8309 -20.6013 10.383 -0.008129 -4.3e-005 3.44891 1.53362 3.46631 10.3818 -0.00798 0.000263 -2.36101 0.195631 3.09203 10.3843 -0.00811 0.000771 0.903061 -4.94111 4.93068 10.3827 -0.007953 0.001876 2.76006 -11.9395 -0.728835 1.1e-005 -1.1e-005 -8.75617 -77.539 -10.4747 -171.743 19.7638 -1e-006 6.43929e-015 -73.9789 0.000288504 0.00205024 18.6534 -3e-006 -1e-006 -39.4793 1.17512 7.29114 5.09143 13.9567 5.72644e-008 79.4099 4.60629 -1.66126 4.288 0 7.10543e-015 24.5539 0.00118267 0.00123355 3.85799 0 3.55271e-015 -45.7495 0.000554429 0.00138863 -1.5e-005 1.5e-005 8.75617 -79.7014 -12.7397 177.108 19.7638 -1e-006 -1.33227e-015 -101.63 0.000308081 -0.00302251 18.6534 8.52651e-014 -4.44089e-015 -22.3265 -0.226802 -6.53361 5.09143 13.9567 -1.16773e-007 81.6088 -3.37563 3.69066 4.288 -3e-006 -6.57252e-014 -18.5 7.05396e-007 3.83886e-007 3.85799 7.10543e-015 5.32907e-015 -2.5 -1.62739e-005 -7.35463e-007 8.93124 -0.006252 -1.97753 -5.52618 -2.08609 23.1785 8.04388 -0.006309 8.4e-005 -5.38253 0.429008 -5.69714 8.04385 -0.006301 8.8e-005 1.70294 0.165437 -2.19942 8.04399 -0.008235 0.000119 7.63749 -0.997286 -3.09383 10.6708 1.06817 2.12348e-006 9.58996 0.00171097 -0.000163519 -4.40171 -3.8676 -9.04801 177.852 -85.4173 110.464 19.0492 1e-006 0 86.5361 31.5829 -103.368 10.3706 -5.2e-005 4e-006 -75.1006 -7.32793e-006 -7.0871e-007 22.8631 0 2.13163e-014 13.2596 7.346 6.51468 6.48256 0.103657 0.504496 -74.9728 -1.21662 -15.4288 3.66844 2.13163e-014 3.55271e-015 40.108 -4.47354e-005 5.78607e-005 -4.40171 -3.86764 9.04798 177.833 85.6044 -127.757 19.0492 -3.90799e-014 7e-006 82.9351 -61.2502 87.8536 10.3706 0 7.10542e-015 -48.0709 0.000307574 0.000763068 22.8631 -7.00001e-006 -1e-006 22.334 -8.35609 3.03445 6.48256 0.103657 -0.504496 -30.3354 11.19 10.4245 3.66843 2.27374e-013 -3e-006 25.3058 0.00116123 0.000738003 7.5253 -0.006637 2.79997e-005 -7.24253 0.00124186 0.00139617 8.47874 -0.005428 5.99955e-006 22.0807 8.46552e-005 6.58296e-005 8.41605 0 -1.77636e-015 -86.0141 0.373814 1.53827 -7e-006 3e-006 -3e-006 -23.1098 1.37701e-015 90 2.04452e-007 -0.499996 4.52284e-006 -180 90 -90 0 0 0 -113.549 7.01671e-015 -180 5.36566 13.4653 3.88993 -23.4392 1.39554e-015 90 0 0 0 -76.4714 -1.52588e-005 -180 0 0 0 -138.736 4.99006e-005 -1.60975e-005 0 0 0 156.768 -2.29722 -5.29354 0 0 0 -13.7181 -0.763522 5.57221 0 0 0 -25.1519 -11.776 9.81027 0 0 0 -26.1943 -5.07012e-007 7.56024e-006 15.5776 -0.000396 -7e-006 -3.18055e-015 -2.48481e-017 7.45443e-017 9.4036 1.03978 -6.51606 -5.22259 -19.2824 18.9943 2.7701 -0.006017 0.002117 2.26516 -19.2035 -0.512528 9.40406 1.03966 6.51624 -5.22355 19.2843 -18.9915 2.77011 -0.006002 -0.002107 2.26476 19.2059 0.513964 
-5.19999e-006 0 -404.22 -0 -90 -0 0.00081 -24.7447 53.8723 90 -6.40879e-005 100.033 0 0 0 -89.9995 3.72415e-005 -102.819 -6.32193 -3.85846 1.44005 -155.963 -16.1717 -21.7554 10.383 -0.008129 -4.3e-005 6.73803 1.95852 1.63292 10.3818 -0.00798 0.000263 1.61871 0.687776 1.33515 10.3843 -0.00811 0.000771 4.33996 -4.31522 3.48171 10.3827 -0.007953 0.001876 6.88843 -11.6593 -1.60893 1.1e-005 -1.1e-005 -8.75617 -77.4077 -10.9256 -171.46 19.7638 -1e-006 -4.44089e-016 -78.1181 0.000209661 0.00204966 18.6534 -3e-006 -1e-006 -43.4502 0.494379 7.4572 5.09143 13.9567 -1.92641e-008 77.2978 4.73456 -1.22782 4.288 -1.42109e-014 7.10543e-015 18.7177 0.00105002 0.0013481 3.85799 -2.84217e-014 7.10543e-015 -45.1067 0.00056277 0.00138174 -1.5e-005 1.5e-005 8.75617 -84.0212 -12.9447 176.628 19.7638 -1e-006 3.55271e-015 -109.877 0.000534675 -0.00302072 18.6534 0 5.32907e-015 -13.1998 -0.383196 -6.3573 5.09143 13.9567 -1.11065e-007 81.6088 -3.37563 3.69066 4.288 -3e-006 -4.79616e-014 -18.5 4.14295e-007 3.3448e-007 3.85799 -2.13163e-014 -5.32907e-015 -2.5 -1.68024e-005 -7.29206e-007 8.91991 -0.006252 -2.02965 -2.76163 -1.05215 23.5338 8.04388 -0.006309 8.4e-005 -7.15821 0.614151 -5.74615 8.04385 -0.006301 8.8e-005 2.16805 0.145417 -2.25769 8.04399 -0.008235 0.000119 9.39386 -1.10264 -3.12746 10.6708 1.06817 2.06012e-006 9.58996 0.00170839 -0.000162952 -4.40171 -3.8676 -9.04801 177.851 -85.4178 108.889 19.0492 1e-006 0 82.8015 17.2385 -99.5416 10.3706 -5.2e-005 4e-006 -67.4776 -7.67586e-006 9.59399e-007 22.8631 -5.68434e-014 -1.42109e-014 -3.21965 7.64151 6.71974 6.48256 0.103657 0.504496 -81.0069 1.06281 -15.141 3.66844 -2.84217e-014 1.77636e-015 40.108 -5.56798e-006 2.34188e-005 -4.40171 -3.86764 9.04798 177.845 85.4428 -124.639 19.0492 -1.95399e-014 7e-006 88.6427 -66.3904 96.7276 10.3706 5.68435e-014 -8.88178e-016 -43.7444 0.00034681 0.000756708 22.8631 -7.00001e-006 -9.99999e-007 7.59077 -7.20288 -0.385578 6.48256 0.103657 -0.504496 -36.9926 10.6942 11.335 3.66843 1.7053e-013 -3e-006 24.9293 0.00115488 0.000746078 7.5253 -0.006637 2.79998e-005 -6.80641 0.00125384 0.00138655 8.47874 -0.005428 5.99975e-006 15.6709 7.47659e-005 7.56042e-005 8.41605 0 -8.88178e-015 -84.7552 -0.00477835 1.38372 -7e-006 3e-006 -3e-006 -23.1098 1.37701e-015 90 2.05776e-007 -0.499996 4.52891e-006 180 90 -90 0 0 0 -113.549 7.01671e-015 -180 5.36566 13.4653 3.88993 -23.4392 1.39554e-015 90 0 0 0 -77.7414 -1.52588e-005 -180 0 0 0 -138.736 4.78586e-005 -1.62275e-005 0 0 0 156.768 -2.29722 -5.29354 0 0 0 -13.7181 -0.763522 5.57221 0 0 0 -25.1519 -11.776 9.81027 0 0 0 -26.1943 -6.09674e-007 7.51858e-006 15.5776 -0.000396 -7e-006 -3.18055e-015 -2.48481e-017 -2.48481e-017 9.4036 1.03978 -6.51606 -5.81103 -20.038 20.1688 2.7701 -0.006017 0.002117 2.27075 -18.6075 -0.511172 9.40406 1.03966 6.51624 -5.8115 20.0397 -20.1666 2.77011 -0.006002 -0.002107 2.2702 18.6097 0.513148 
